<?xml version="1.0" standalone="no"?><!DOCTYPE svg PUBLIC "-//W3C//DTD SVG 1.1//EN" "http://www.w3.org/Graphics/SVG/1.1/DTD/svg11.dtd"><svg t="1600828441470" class="icon" viewBox="0 0 1024 1024" version="1.1" xmlns="http://www.w3.org/2000/svg" p-id="1325" xmlns:xlink="http://www.w3.org/1999/xlink" width="200" height="200"><defs><style type="text/css"></style></defs><path d="M772.783872 272.128L512.175872 49.664 247.215872 270.08l-16.384-19.712L512.175872 16.128l276.992 236.544-16.384 19.456z" fill="#20CACE" p-id="1326"></path><path d="M768.175872 256a303.36 303.36 0 0 0-256 145.152A303.36 303.36 0 0 0 256.175872 256 248.32 248.32 0 0 0 0.175872 513.536c1.536 109.056 49.152 230.4 179.2 335.104A1146.88 1146.88 0 0 0 512.175872 1024a1146.88 1146.88 0 0 0 332.8-175.36c129.536-105.984 177.152-226.048 179.2-335.104A248.32 248.32 0 0 0 768.175872 256z" fill="#BE92F1" p-id="1327"></path><path d="M768.175872 192a303.36 303.36 0 0 0-256 145.152A303.36 303.36 0 0 0 256.175872 192 248.32 248.32 0 0 0 0.175872 449.536c1.536 109.056 49.152 230.4 179.2 335.104a1146.88 1146.88 0 0 0 332.8 175.36 1146.88 1146.88 0 0 0 332.8-175.36c129.536-105.984 177.152-226.048 179.2-335.104A248.32 248.32 0 0 0 768.175872 192z" fill="#CBB0F7" p-id="1328"></path><path d="M217.007872 450.048h29.696V614.4h79.36v25.6H217.007872zM340.911872 543.488c0-60.672 33.536-97.024 81.664-97.024s82.176 36.352 82.176 97.024-33.792 98.048-82.176 98.048-81.664-37.632-81.664-98.048z m133.376 0c0-44.288-20.48-71.168-51.2-71.168s-51.2 26.88-51.2 71.168 20.224 72.192 51.2 72.192 51.2-26.88 51.2-72.192zM516.015872 450.048h31.488l27.904 97.536c6.4 21.248 10.496 39.68 17.152 61.44h1.28c6.4-21.76 10.752-40.192 16.896-61.44l27.904-97.536h30.208l-58.88 188.16h-34.816zM693.423872 450.048h111.104v25.6h-81.408v51.712h68.864v25.6h-68.864V614.4h84.224v25.6h-113.92z" fill="#7AEDE5" p-id="1329"></path><path d="M106.165386 362.655784m-2.632173 22.889152a23.04 23.04 0 1 0 5.264346-45.778303 23.04 23.04 0 1 0-5.264346 45.778303Z" fill="#FFFFFF" p-id="1330"></path><path d="M62.127872 430.848c7.936-25.6 27.904-30.208 35.84-17.92s-9.728 27.904-4.096 88.576a1021.184 1021.184 0 0 0 23.296 104.192c-2.048 10.752-36.608-40.192-51.2-90.112a164.096 164.096 0 0 1-3.84-84.736z" fill="#FFFFFF" p-id="1331"></path><path d="M512.175872 38.4m-38.4 0a38.4 38.4 0 1 0 76.8 0 38.4 38.4 0 1 0-76.8 0Z" fill="#7AEDE5" p-id="1332"></path></svg>